<?xml version="1.0" encoding="UTF-8"?>
<!DOCTYPE svg PUBLIC "-//W3C//DTD SVG 1.1//EN" "http://www.w3.org/Graphics/SVG/1.1/DTD/svg11.dtd">
<svg xmlns="http://www.w3.org/2000/svg" version="1.1" width="32px" height="32px" style="shape-rendering:geometricPrecision; text-rendering:geometricPrecision; image-rendering:optimizeQuality; fill-rule:evenodd; clip-rule:evenodd" xmlns:xlink="http://www.w3.org/1999/xlink">
<g><path style="opacity:0.907" fill="#ffbe00" d="M 13.5,-0.5 C 14.8333,-0.5 16.1667,-0.5 17.5,-0.5C 18.7866,2.40612 19.7866,5.40612 20.5,8.5C 24.1352,9.11425 27.8019,9.44759 31.5,9.5C 31.5,10.8333 31.5,12.1667 31.5,13.5C 28.8544,15.4789 26.5211,17.8122 24.5,20.5C 25.802,23.7079 26.4687,27.0412 26.5,30.5C 22.5209,30.0098 18.8543,28.6765 15.5,26.5C 12.1457,28.6765 8.47905,30.0098 4.5,30.5C 4.53129,27.0412 5.19796,23.7079 6.5,20.5C 4.47891,17.8122 2.14557,15.4789 -0.5,13.5C -0.5,12.1667 -0.5,10.8333 -0.5,9.5C 3.1981,9.44759 6.86477,9.11425 10.5,8.5C 11.2134,5.40612 12.2134,2.40612 13.5,-0.5 Z"/></g>
</svg>
